<?xml version="1.0" standalone="no"?>
<!DOCTYPE svg PUBLIC "-//W3C//DTD SVG 20010904//EN"
 "http://www.w3.org/TR/2001/REC-SVG-20010904/DTD/svg10.dtd">
<svg version="1.0" xmlns="http://www.w3.org/2000/svg"
 width="462.000000pt" height="462.000000pt" viewBox="0 0 462.000000 462.000000"
 preserveAspectRatio="xMidYMid meet">
<metadata>
Created by potrace 1.14, written by Peter Selinger 2001-2017
</metadata>
<g transform="translate(0.000000,462.000000) scale(0.100000,-0.100000)"
fill="#000000" stroke="none">
<path d="M0 3465 l0 -1155 684 0 684 0 8 92 c9 104 8 106 40 -85 9 -54 18 -96
20 -94 3 2 8 131 13 286 5 155 10 283 12 285 2 2 14 6 26 10 20 7 21 5 16 -53
-4 -38 -1 -72 7 -91 20 -49 103 -115 213 -169 167 -82 296 -103 367 -59 19 12
44 22 54 22 14 1 32 22 55 64 102 178 170 173 272 -18 16 -29 31 -45 44 -46
11 0 36 -10 55 -22 69 -43 198 -24 355 53 168 81 235 145 235 224 0 37 25 43
34 9 3 -13 6 -126 7 -253 l1 -230 23 82 c13 45 27 113 31 150 6 56 9 63 15 40
4 -15 10 -58 14 -95 4 -37 9 -75 11 -84 5 -17 45 -18 665 -18 l659 0 0 1155 0
1155 -2310 0 -2310 0 0 -1155z m2394 -16 c136 -33 237 -90 289 -166 15 -22 39
-82 52 -133 14 -51 38 -123 54 -161 27 -65 28 -69 10 -69 -49 0 -185 -36 -306
-81 -73 -27 -147 -49 -163 -49 -17 0 -86 21 -153 46 -181 67 -260 84 -402 83
-66 0 -144 -4 -172 -8 -29 -4 -53 -7 -53 -6 0 13 45 125 69 174 59 116 157
190 348 260 91 33 180 77 233 114 40 28 65 27 194 -4z m402 -177 c45 -110 112
-252 144 -304 l30 -48 -69 0 -69 0 -26 78 c-15 43 -33 130 -41 192 -10 72 -25
135 -40 170 l-25 55 34 -38 c19 -21 47 -68 62 -105z m-1272 -232 c-7 -41 -13
-90 -14 -108 0 -20 -6 -35 -15 -39 -26 -9 -28 3 -12 79 14 69 44 154 51 147 2
-2 -2 -38 -10 -79z"/>
<path d="M2094 2031 c-71 -36 -152 -112 -180 -167 -16 -33 -19 -66 -22 -209
l-3 -171 40 -45 c79 -90 216 -138 396 -139 177 0 287 35 377 119 l61 57 9 163
c8 160 8 164 -15 214 -32 68 -107 141 -184 179 -54 26 -69 30 -105 23 -53 -10
-208 -11 -268 -1 -39 7 -53 3 -106 -23z m251 -85 c28 0 80 4 116 9 59 7 71 5
105 -14 49 -27 83 -76 101 -144 17 -68 17 -157 -2 -184 -31 -44 -195 -59 -250
-23 -20 13 -47 20 -80 20 -33 0 -60 -7 -80 -20 -55 -36 -219 -21 -250 23 -33
48 -12 200 38 276 39 59 77 73 172 64 44 -4 103 -7 130 -7z"/>
<path d="M1618 1517 c-16 -39 -93 -59 -252 -68 -223 -12 -304 -35 -326 -95
-17 -43 -12 -67 30 -138 22 -38 39 -70 38 -72 -2 -1 -73 -20 -158 -42 -315
-82 -456 -148 -580 -272 -85 -85 -131 -157 -165 -257 -31 -92 -105 -457 -105
-521 l0 -52 801 0 801 0 -5 412 c-4 400 -5 417 -31 553 -22 113 -29 181 -34
355 -4 118 -10 207 -14 197z"/>
<path d="M2986 1333 c-4 -137 -13 -230 -33 -343 -26 -149 -27 -172 -31 -572
l-3 -418 800 0 801 0 0 52 c0 64 -74 429 -105 521 -34 100 -80 172 -165 257
-124 124 -265 190 -580 272 -85 22 -156 41 -157 42 -2 1 15 38 38 81 45 87 45
111 2 156 -37 39 -122 59 -296 68 -152 8 -209 21 -248 57 -16 14 -17 2 -23
-173z"/>
</g>
</svg>
